<svg xmlns="http://www.w3.org/2000/svg" width="20" height="20" viewBox="0 0 20 20">
  <path fill="#000000" fill-rule="evenodd" d="M10.0006841,8.58578644 L13.5313775,5.05509301 C13.9251629,4.66130757 14.5599072,4.65972824 14.9504315,5.05025253 C15.3436785,5.44349949 15.3387887,6.07610896 14.9455911,6.46930658 L11.4148976,10 L14.9455911,13.5306934 C15.3393765,13.9244789 15.3409558,14.5592232 14.9504315,14.9497475 C14.5571846,15.3429944 13.9245751,15.3381046 13.5313775,14.944907 L10.0006841,11.4142136 L6.46999065,14.944907 C6.0762052,15.3386924 5.44146089,15.3402718 5.0509366,14.9497475 C4.65768965,14.5565005 4.66257947,13.923891 5.05577708,13.5306934 L8.58647051,10 L5.05577708,6.46930658 C4.66199164,6.07552113 4.66041231,5.44077682 5.0509366,5.05025253 C5.44418356,4.65700558 6.07679303,4.6618954 6.46999065,5.05509301 L10.0006841,8.58578644 L10.0006841,8.58578644 Z"/>
</svg>
