<svg xmlns="http://www.w3.org/2000/svg" width="20" height="20" viewBox="0 0 20 20">
  <path fill="#000000" fill-rule="evenodd" d="M10,7 C11.1045695,7 12,6.1045695 12,5 C12,3.8954305 11.1045695,3 10,3 C8.8954305,3 8,3.8954305 8,5 C8,6.1045695 8.8954305,7 10,7 Z M10,17 C11.1045695,17 12,16.1045695 12,15 C12,13.8954305 11.1045695,13 10,13 C8.8954305,13 8,13.8954305 8,15 C8,16.1045695 8.8954305,17 10,17 Z M10,12 C11.1045695,12 12,11.1045695 12,10 C12,8.8954305 11.1045695,8 10,8 C8.8954305,8 8,8.8954305 8,10 C8,11.1045695 8.8954305,12 10,12 Z"/>
</svg>
